<svg width="140" height="42" viewBox="0 0 140 42" fill="none" xmlns="http://www.w3.org/2000/svg">
<path d="M48.7042 27.9634H60.6608V33.2022H43.093V4.55534H48.7023V27.9634H48.7042Z" fill="white"/>
<path d="M68.4206 42H62.8914L66.0446 32.9564L58.6761 12.4536H64.3674L68.4616 25.222L68.8716 27.0229L69.2816 25.222L73.3758 12.4536H79.0671L68.4206 42Z" fill="white"/>
<path d="M91.5772 12.0048C93.7613 12.0048 95.4255 12.6939 96.5734 14.072C97.7195 15.4502 98.2935 17.3386 98.2935 19.7392V33.2022H93.0103V20.8845C93.0103 18.402 92.0003 17.1598 89.9802 17.1598C88.9161 17.1598 88.0421 17.59 87.36 18.4486C86.6779 19.3071 86.3369 20.5698 86.3369 22.2329V33.2003H81.0556V12.4536H85.6008L85.9698 15.154C86.4878 14.2266 87.2258 13.4705 88.1818 12.8838C89.1341 12.2972 90.2671 12.0048 91.5772 12.0048Z" fill="white"/>
<path d="M107.548 20.8845L113.649 12.4555H119.915L113.854 21.1713L121.02 33.2022H114.959L110.127 25.222L107.548 28.537V33.2022H102.267V3.32804H107.548V20.8845Z" fill="white"/>
<path d="M139.467 16.3832L130.049 28.578H139.998V33.2022H123.004V29.2335L132.425 17.0779H123.047V12.4536H139.467V16.3832Z" fill="white"/>
<path d="M12.9462 12.9306L7.17844 5.97471L19.0829 3.89817C19.0885 3.89631 19.094 3.89817 19.0996 3.89631C19.5003 3.8274 19.9028 3.83113 20.296 3.88513C21.2483 4.01736 22.1391 4.48854 22.7764 5.24093L29.9474 13.8879L34.3044 13.128L25.7246 2.78075C23.9989 0.728429 21.2558 -0.375952 18.4232 0.117574L0 3.33201L11.4329 17.1191L12.9462 12.9306Z" fill="white"/>
<path d="M20.0445 27.5034L23.1287 26.9651C23.5293 26.8944 23.9058 26.7547 24.258 26.5703L15.79 16.359L14.2767 20.5474L20.0445 27.5034Z" fill="white"/>
<path d="M29.7387 25.7714L34.3044 13.1315L30.1356 13.8578V13.856L15.7899 16.359L18.6114 19.7615L28.4454 18.0463L26.1308 24.4547C25.788 25.3784 25.1078 26.1234 24.258 26.5703C23.9076 26.7547 23.5293 26.8925 23.1287 26.9651C23.1231 26.967 23.1175 26.9689 23.1119 26.9689L11.2075 29.0435L14.2767 20.5456L15.7899 16.3571L20.296 3.88116C19.9028 3.82715 19.5003 3.82343 19.0996 3.89234L16.0154 4.43242L12.9462 12.9304L11.4329 17.1188L5.34842 33.962L23.7716 30.7513C26.6042 30.2559 28.8106 28.2874 29.7387 25.7714Z" fill="white"/>
</svg>
